<svg xmlns="http://www.w3.org/2000/svg" viewBox="0 0 449.32 449.32"><defs><style>.cls-1,.cls-5,.cls-6,.cls-7,.cls-8{fill:none;stroke-miterlimit:10;}.cls-1{stroke:#fff;stroke-width:7px;}.cls-2{fill:#3084c6;}.cls-3{fill:#7fb64b;}.cls-4{fill:#feffff;}.cls-5,.cls-6,.cls-7,.cls-8{stroke:#feffff;}.cls-5{stroke-width:3px;}.cls-7{stroke-width:0.75px;}.cls-8{stroke-width:0.5px;}.cls-9{font-size:130px;font-family:BambooBrisk-Regular, Bamboo Brisk;}.cls-10,.cls-9{fill:#fff;}</style></defs><g id="ozone"><circle class="cls-1" cx="224.66" cy="224.66" r="221.16"/></g><g id="water"><path class="cls-2" d="M449.23,250c0,110-89.2,199.23-199.23,199.23a198.72,198.72,0,0,1-70.81-13l17.91-1,6.66-12.74-17.95-13.89L109.39,378l-4.34-11,42.26-5.21L222,331.35l68-54.71L232.13,182l-17.37-6.37-4.34-16.5-28.66-2,20.55-62.82-22.58,8,6.66-8,15.92-10.71,3.48-12.16-10.71-2.31,2.46-4.34,18.6-11.1A199.9,199.9,0,0,1,250,50.77C360,50.77,449.23,140,449.23,250Z" transform="translate(-25.34 -25.34)"/></g><g id="land"><path class="cls-3" d="M410.11,132.26l-17.78,8.79-12.58-7.19-11.19-1-44,19-37.16-7.79-10.19-22.57L250,104.89l-20.69-2.79-2.2-6.8,7-12.58,22.78-16-31.17-1.59,18.23-14.27q3-.1,6.06-.1a198.69,198.69,0,0,1,60.56,9.38l14,5a199.83,199.83,0,0,1,84.35,64.59Z" transform="translate(-25.34 -25.34)"/><path class="cls-3" d="M449.23,250a198.68,198.68,0,0,1-13.35,71.83l-5.75-10.17-14.47,28.95h-9.84L340.4,266.79l13-33L374.84,226l20.56-13,17.37-16.5,8.1-18.53-19.1-9.84L407,149.26l16.17,2.12A198.29,198.29,0,0,1,449.23,250Z" transform="translate(-25.34 -25.34)"/><path class="cls-3" d="M147.31,361.74,105.05,367l4.34,11,76.42,30.69,17.95,13.89-6.66,12.74-17.91,1h0c-1.29-.49-2.57-1-3.84-1.51-1-.39-1.93-.79-2.89-1.2-.18-.07-.37-.15-.55-.24-.83-.34-1.67-.7-2.49-1.07l-1.4-.63c-.74-.33-1.47-.66-2.2-1l-1.94-.92c-1.53-.73-3.06-1.49-4.57-2.27l-1.81-.94c-.28-.14-.57-.29-.85-.45l-1.61-.86c-.7-.38-1.4-.76-2.1-1.16l-1.45-.82c-.71-.39-1.41-.8-2.11-1.21l-.85-.5c-.91-.54-1.81-1.08-2.71-1.65l-.26-.15c-.66-.41-1.32-.82-2-1.25-.32-.19-.64-.39-.95-.6l-.76-.49c-.81-.51-1.61-1-2.41-1.58s-1.59-1.07-2.38-1.62c-.15-.09-.29-.19-.44-.3l-1.88-1.32-.14-.1-1.77-1.27c-1-.74-2-1.49-3-2.27l-1.74-1.32-1.06-.83c-.82-.64-1.64-1.3-2.45-2s-1.69-1.38-2.53-2.08-1.73-1.47-2.59-2.22c-.45-.38-.9-.78-1.34-1.17l-2-1.83q-1.31-1.19-2.58-2.4l-.08-.06c-.86-.82-1.72-1.64-2.56-2.46l-.07-.07c-.85-.83-1.68-1.66-2.51-2.5l-.19-.19q-1.26-1.28-2.49-2.58t-2.52-2.7c-.7-.76-1.4-1.53-2.08-2.31l0,0-1.21-1.38L99,380l-1.21-1.42c-1.67-2-3.3-4-4.88-6-.52-.66-1-1.32-1.54-2-1.32-1.74-2.61-3.49-3.87-5.27-.4-.56-.8-1.12-1.19-1.69q-1.59-2.26-3.1-4.59c-.36-.54-.71-1.09-1.06-1.64-.61-.95-1.21-1.9-1.81-2.86-.4-.64-.79-1.29-1.17-1.94-.27-.44-.54-.89-.8-1.34-.44-.73-.86-1.46-1.29-2.19l-1-1.73c-.84-1.49-1.67-3-2.47-4.53-.36-.7-.73-1.39-1.08-2.09s-.73-1.44-1.09-2.16c-.61-1.22-1.2-2.44-1.78-3.68-.28-.57-.55-1.15-.81-1.73-.18-.38-.35-.76-.52-1.14-.41-.91-.81-1.82-1.21-2.73-.22-.51-.44-1-.65-1.53q-1-2.43-2-4.89c-.26-.66-.52-1.32-.77-2-.44-1.14-.87-2.3-1.28-3.46-.29-.8-.58-1.6-.84-2.4q-1.8-5.16-3.29-10.45c-.18-.61-.35-1.23-.51-1.84q-.41-1.45-.78-2.91-.43-1.69-.84-3.39a.5.5,0,0,1,0-.12c-.3-1.22-.58-2.44-.84-3.67a0,0,0,0,1,0,0c-.27-1.24-.53-2.48-.77-3.73s-.47-2.39-.68-3.59l0-.19c-.2-1.09-.38-2.19-.55-3.29-.27-1.63-.51-3.27-.73-4.92-.12-.88-.24-1.76-.34-2.64-.17-1.34-.31-2.69-.45-4l-.12-1.25c-.1-1-.19-2.08-.27-3.13-.11-1.3-.19-2.61-.27-3.92S51,259.3,50.93,258c0-1.11-.08-2.22-.1-3.34,0-.49,0-1,0-1.48,0-1.06,0-2.12,0-3.19,0-.86,0-1.72,0-2.57s0-1.72.05-2.58,0-1.7.08-2.55.06-1.66.11-2.48c.09-1.87.21-3.74.36-5.6,0-.69.11-1.38.17-2.07q.11-1.26.24-2.52c.08-.84.17-1.67.27-2.51.07-.64.15-1.29.23-1.94q.35-2.77.77-5.52c.12-.82.25-1.65.39-2.47a198.21,198.21,0,0,1,6.27-26.43c.23-.76.48-1.53.72-2.28s.57-1.74.87-2.61L62,184c.29-.82.58-1.64.88-2.45s.56-1.52.85-2.28c.6-1.58,1.22-3.16,1.86-4.72.29-.69.57-1.37.86-2.05l1-2.24c.32-.74.65-1.47,1-2.2s.67-1.47,1-2.2.69-1.46,1-2.18.7-1.45,1.06-2.17.72-1.44,1.09-2.16q1.09-2.15,2.25-4.26c.38-.71.77-1.41,1.16-2.11s.89-1.59,1.34-2.37c.35-.6.7-1.2,1.06-1.8,1.22-2.08,2.48-4.12,3.78-6.14.42-.66.84-1.31,1.27-2q1.41-2.16,2.88-4.26c.4-.58.81-1.16,1.22-1.73q2.35-3.31,4.82-6.51c.77-1,1.54-2,2.32-2.93s1.46-1.8,2.2-2.69c1.14-1.36,2.29-2.71,3.46-4,.69-.79,1.39-1.58,2.1-2.36.89-1,1.79-2,2.7-2.92l2.31-2.41.75-.76c.83-.84,1.67-1.68,2.52-2.51a1.14,1.14,0,0,0,.11-.11c.91-.88,1.83-1.77,2.76-2.64s1.94-1.8,2.92-2.69l0,0c.81-.73,1.62-1.45,2.45-2.17,1.41-1.24,2.84-2.45,4.29-3.65l2.27-1.84.25-.2c1-.78,2-1.55,3-2.32l.14-.11c.89-.68,1.78-1.35,2.68-2,.2-.16.41-.31.61-.45.82-.61,1.66-1.21,2.49-1.8l1.16-.82,2.62-1.81.16-.11c1-.7,2.09-1.39,3.14-2.07l.09-.06c1.1-.71,2.2-1.41,3.32-2.1s2.18-1.34,3.28-2l.31-.18c1-.59,2-1.18,3-1.76,2.06-1.17,4.15-2.31,6.26-3.4.41-.23.83-.44,1.25-.65.86-.44,1.72-.88,2.59-1.31l1.74-.84c1.1-.54,2.21-1.06,3.33-1.57q3.19-1.47,6.45-2.82l.49-.21c1-.42,2-.83,3-1.23l1.12-.43c.8-.32,1.6-.62,2.4-.91l1.26-.47L185,61.63l.34-.11c1.22-.42,2.44-.83,3.67-1.22s2.6-.82,3.9-1.21,2.61-.77,3.93-1.13a196.52,196.52,0,0,1,19.35-4.32l-18.6,11.1-2.46,4.34,10.71,2.31-3.48,12.16L186.39,94.26l-6.66,8,22.58-8-20.55,62.82,28.66,2,4.34,16.5L232.13,182,290,276.64l-68,54.71Z" transform="translate(-25.34 -25.34)"/></g><g id="leaf"><path class="cls-4" d="M360.85,438.88a2.46,2.46,0,0,1,1,1.81c0,2.27-4.34,4.11-9.68,4.11-.57,0-1.14,0-1.68-.06C334.4,462,283.14,471.16,250,471.16a160.39,160.39,0,0,1-82.83-297.64,2.28,2.28,0,0,1,.28.13,157.34,157.34,0,0,1,26.13,16.07A135.77,135.77,0,0,0,155.81,213c-27.58,24-44.92,58.8-44.92,97.55A139.63,139.63,0,0,0,145,401.28q3.66,4.25,7.65,8.16a68.44,68.44,0,0,0,12.4,11.32c2.34,1.7,4.86,3.34,7.53,4.92h0a122.5,122.5,0,0,0,11.56,6l1,.46c15.36,6.91,34.19,12.14,55.13,15,.51,0,16.83,1.84,24.8,2.24q6,.31,12.14.36h2.46a269.68,269.68,0,0,0,55.37-5.75h0q3.25-.69,6.42-1.47l1.61-.41c5.36-1.35,10.51-2.88,15.4-4.56,1.59-.54,3.2-1.11,4.74-1.68,0,0,2.69.64,3.89,1.05Q364,437.95,360.85,438.88Z" transform="translate(-25.34 -25.34)"/><path class="cls-4" d="M339.27,192.89c-32.34-8.75-67.64,2.49-75.14,10S237.89,218,237.89,218c-29.68,11.72-32.54,11-47.25,11.95s-34.83-17-34.83-17l-7.34-26.22c7-5.07,13.17-9.41,19-13.09a157.34,157.34,0,0,1,26.13,16.07,220.7,220.7,0,0,1,23,19.84s-1.74-16.83-18.77-33.86a90.5,90.5,0,0,0-13.63-11.1q4.88-2.21,9.91-4.08l.08,0,.07,0c1.18-.38,2.36-.74,3.57-1.07,1.4-.4,2.82-.76,4.26-1.09l2.75,2s21.36,17.21,35.25,35.94c-.26-.83-8.94-27.65-20.82-40.37,4.79-.35,9.93-.48,15.56-.43,0,0,18.91,21.69,24,25.76,0,0,.62-5.71-13.69-25.5,4.7.18,9.71.45,15.1.81A114.23,114.23,0,0,1,276.57,176s.91-5.37-6.38-18.49c4.24.56,8.27,1.29,12.08,2.15,3.28,4.55,8.6,12,8.6,12a42.4,42.4,0,0,0-2.39-10.46,93,93,0,0,1,10.61,4c1,.32,2.37.75,2.84,1.62a4.2,4.2,0,0,0-.59-1.21,12.84,12.84,0,0,0-1.94-2.49.19.19,0,0,0-.07-.06,2.54,2.54,0,0,0-.44-.38,1.74,1.74,0,0,0-.27-.22l1.36-2.29c28.39,15,38,30.7,39.16,32.54l.05.08,0,.06a.09.09,0,0,1,0,0Z" transform="translate(-25.34 -25.34)"/></g><g id="buildings"><path class="cls-5" d="M158.11,109.14,172.3,155l22.08-5.55L182,105.92a2.24,2.24,0,0,0-2.36-1.63l-21,2.2C157.12,106.63,157.65,107.66,158.11,109.14Z" transform="translate(-25.34 -25.34)"/><path class="cls-5" d="M146.61,126.65l16,31.24a1.55,1.55,0,0,0,2,.69l6.39-3a1.55,1.55,0,0,0,.82-1.86l-13.61-44c-.4-1.29-.14-3.69-.81-2.5l-10.85,18A1.52,1.52,0,0,0,146.61,126.65Z" transform="translate(-25.34 -25.34)"/><path class="cls-5" d="M202.71,109.8l10.75,38.48,21.46-1.42-12.76-42a2.39,2.39,0,0,0-2.79-1.52l-16.48,3.79C201.56,107.43,202.34,108.49,202.71,109.8Z" transform="translate(-25.34 -25.34)"/><path class="cls-5" d="M193.16,119.94l8.47-12.14c.75-1.06.93,1.47,1.28,2.72l10.55,37.76L203,149.65l-10.21-26.08A3.77,3.77,0,0,1,193.16,119.94Z" transform="translate(-25.34 -25.34)"/><path class="cls-5" d="M242.05,114.46l13.47,33.08,20.74-2.43s-7.67-31.58-11.52-33.72c-3.14-1.75-17.8.86-22.68,1.67C241.16,113.21,241.71,113.61,242.05,114.46Z" transform="translate(-25.34 -25.34)"/><path class="cls-5" d="M230.83,129.12l10-15.5c.65-1,1.2.71,1.65,1.82l13.07,32.1h-19.4Z" transform="translate(-25.34 -25.34)"/><polygon class="cls-6" points="137.06 85.34 138.99 90.95 142.67 90.39 140.99 84.76 137.06 85.34"/><polygon class="cls-6" points="143.6 84.48 145.53 90.09 149.21 89.53 147.52 83.87 143.6 84.48"/><polygon class="cls-6" points="149.5 83.55 151.43 89.16 155.11 88.59 153.42 82.91 149.5 83.55"/><polygon class="cls-6" points="139.46 93.44 141.38 99.05 145.06 98.49 143.39 92.86 139.46 93.44"/><polygon class="cls-6" points="145.99 92.58 147.92 98.19 151.6 97.63 149.92 91.97 145.99 92.58"/><polygon class="cls-6" points="151.9 91.65 153.83 97.25 157.51 96.69 155.82 91 151.9 91.65"/><polygon class="cls-6" points="142.18 101.35 144.11 106.96 147.79 106.4 146.12 100.77 142.18 101.35"/><polygon class="cls-6" points="148.72 100.5 150.65 106.1 154.33 105.54 152.65 99.88 148.72 100.5"/><polygon class="cls-6" points="154.63 99.56 156.55 105.17 160.24 104.61 158.54 98.92 154.63 99.56"/><polygon class="cls-6" points="144.67 109.16 146.6 114.77 150.28 114.21 148.6 108.58 144.67 109.16"/><polygon class="cls-6" points="151.21 108.3 153.14 113.91 156.82 113.35 155.13 107.69 151.21 108.3"/><polygon class="cls-6" points="157.11 107.37 159.04 112.97 162.72 112.41 161.03 106.72 157.11 107.37"/><polygon class="cls-6" points="147.16 116.45 149.09 122.06 152.77 121.5 151.09 115.86 147.16 116.45"/><polygon class="cls-6" points="153.7 115.59 155.62 121.2 159.31 120.64 157.62 114.97 153.7 115.59"/><polygon class="cls-6" points="159.6 114.65 161.53 120.26 165.21 119.7 163.52 114.01 159.6 114.65"/><polygon class="cls-7" points="130.81 92.16 132.05 96.5 130.32 98.41 128.53 95.28 130.81 92.16"/><polygon class="cls-7" points="126.72 97.64 128.28 101.63 126.23 103.89 124.44 100.77 126.72 97.64"/><polygon class="cls-7" points="129.71 103.74 131.08 107.68 129.25 109.7 127.53 106.72 129.71 103.74"/><polygon class="cls-7" points="132.21 109.84 133.73 113.56 131.79 115.16 130.26 112.5 132.21 109.84"/><polygon class="cls-7" points="136.19 106.44 137.46 110.4 135.78 111.76 134.25 109.1 136.19 106.44"/><polygon class="cls-7" points="134.83 116.25 136.18 119.57 134.46 121 133.09 118.62 134.83 116.25"/><polygon class="cls-7" points="138.38 113.21 139.51 116.75 138.01 117.96 136.65 115.59 138.38 113.21"/><polygon class="cls-7" points="137.58 121.98 138.78 124.92 137.25 126.18 136.05 124.08 137.58 121.98"/><polygon class="cls-7" points="140.72 119.3 141.72 122.42 140.39 123.5 139.19 121.4 140.72 119.3"/><polygon class="cls-7" points="133.62 99.07 134.8 103.22 133.16 105.03 131.45 102.05 133.62 99.07"/><polygon class="cls-6" points="182.27 84.17 183.82 89.51 187.46 88.57 185.86 83.29 182.27 84.17"/><polygon class="cls-6" points="188.78 82.64 190.33 87.97 193.97 87.04 192.37 81.75 188.78 82.64"/><polygon class="cls-6" points="184.96 92.36 186.51 97.69 190.15 96.76 188.55 91.47 184.96 92.36"/><polygon class="cls-6" points="191.47 90.82 193.02 96.16 196.66 95.22 195.06 89.94 191.47 90.82"/><polygon class="cls-6" points="187.34 100.58 188.89 105.92 192.53 104.98 190.93 99.7 187.34 100.58"/><polygon class="cls-6" points="193.85 99.05 195.4 104.39 199.04 103.45 197.44 98.16 193.85 99.05"/><polygon class="cls-6" points="189.78 108.89 191.33 114.22 194.97 113.28 193.37 108 189.78 108.89"/><polygon class="cls-6" points="196.29 107.35 197.84 112.69 201.48 111.75 199.88 106.46 196.29 107.35"/><polygon class="cls-7" points="171.74 95.08 174.61 91.91 176 96.72 173.4 98.92 171.74 95.08"/><polygon class="cls-7" points="173.87 101.72 176.74 98.54 178.14 103.36 175.54 105.56 173.87 101.72"/><polygon class="cls-7" points="176 108.73 178.88 105.56 180.27 110.37 177.67 112.57 176 108.73"/><polygon class="cls-7" points="221.18 90.85 222.66 95.41 230.77 93.1 229.59 89.11 221.18 90.85"/><polygon class="cls-7" points="223.87 98.45 225.51 102.94 233.07 100.43 231.7 96.05 223.87 98.45"/><polygon class="cls-7" points="226.49 106.17 228.27 110.57 235.41 107.83 234.25 103.4 226.49 106.17"/><polygon class="cls-8" points="215.46 94.58 217.62 99.98 214.78 102.32 212.71 98.09 215.46 94.58"/><polygon class="cls-8" points="211.33 100.36 213.22 104.59 210.49 107.27 208.76 103.73 211.33 100.36"/><polygon class="cls-8" points="218.37 101.84 220.53 107.24 217.7 109.58 215.63 104.59 218.37 101.84"/><polygon class="cls-8" points="213.56 106.12 215.45 110.35 212.72 113.03 210.99 109.5 213.56 106.12"/><polygon class="cls-7" points="231.23 88.86 232.36 92.67 239.21 91.34 238 87.89 231.23 88.86"/><polygon class="cls-7" points="233.81 95.45 235.13 99.67 241.63 97.52 240.4 93.76 233.81 95.45"/><polygon class="cls-7" points="236.35 102.25 237.94 106.61 243.93 103.92 242.67 100.2 236.35 102.25"/></g><g id="bushes"><path class="cls-4" d="M230.81,146.6s-5.68-8.64,4.81-5.09c0,0-1.67-10.11,6.46-6.74,0,0,6.73-3.33,6.47,5.57,0,0,8-5,10.66,3.44,0,0,1.22-14.65,13.19-4.91,0,0,2.37,4.93-4.19,10.61C268.21,149.48,244.35,145,230.81,146.6Z" transform="translate(-25.34 -25.34)"/><path class="cls-4" d="M287,143.11s6.16-18.44-6-13.88c0,0-7.34-17.14-8.74,3.86,0,0-5.51-1.78-5.6,2.58s9.63,9.44,9.63,9.44Z" transform="translate(-25.34 -25.34)"/><path class="cls-4" d="M276.26,142.7s-11.87-7.18-8.05,6.72c0,0,23.51,5.15,32,11,0,0,3-2.44-.63-5.07,0,0,6.38-6-.5-10.53,0,0,.71-13.26-12.12-4C287,140.85,281.06,132.55,276.26,142.7Z" transform="translate(-25.34 -25.34)"/><path class="cls-4" d="M132.23,182.44s18.27-21.78,74.5-30.6,91.89,10.6,91.89,10.6,2.88-3.1,1.58-3.1-26.2-15.25-70.5-13C185,148.57,167.76,157,152.88,163.94a96.89,96.89,0,0,0-24.93,17Z" transform="translate(-25.34 -25.34)"/><path class="cls-4" d="M154.14,138.45s-9.95-1.32-7.68,10.46c0,0-7.21,7.6,2.26,9.82s12-3,12-3Z" transform="translate(-25.34 -25.34)"/><path class="cls-4" d="M181.53,154s-3.5-8-12.41-1.2c0,0-7.52-2.47-11,4.87,0,0-.87-7.95-8-5.33,0,0-6.81,2.66,0,8.21,0,0,3.28,6.52,8.82,2.36S181.53,154,181.53,154Z" transform="translate(-25.34 -25.34)"/><path class="cls-4" d="M185.63,151.84s-3-9.07,7.69-5.74c0,0,.09-8.38,5.86-3.23,0,0-1.82-16.87,9.17-6.38,0,0,11.46-2.14,9.88,6,0,0,2.87,6.47-4,6.41Z" transform="translate(-25.34 -25.34)"/><path class="cls-4" d="M152.88,164.48s.17-14.94-10-5.41c0,0-6.37-16.31-10.81,3.57,0,0-10-4.67-4.27,10.17,0,0-10.54,7.33,1.91,8.52Z" transform="translate(-25.34 -25.34)"/><path class="cls-4" d="M189.66,135.27s-.53-8.23,3.47-7.84,5.47,15.16,5.47,15.16-2.32,5.63-5.41,1.55A19.16,19.16,0,0,1,189.66,135.27Z" transform="translate(-25.34 -25.34)"/></g><g id="text"><text class="cls-9" transform="translate(104.54 349.69)">Threa</text></g><g id="waterdroplet"><ellipse class="cls-10" cx="315.19" cy="196.28" rx="9.97" ry="11.3"/><path class="cls-10" d="M348.74,215.21a.58.58,0,0,1-.47.83l-7.69-.11-7.69-.11a.54.54,0,0,1-.46-.78l4-6.76,4-6.83a.43.43,0,0,1,.78,0l3.79,6.95Z" transform="translate(-25.34 -25.34)"/></g></svg>