<svg xmlns="http://www.w3.org/2000/svg" viewBox="0 0 356.48 429.06"><defs><style>.cls-1{fill:#fff;}</style></defs><g id="Layer_2" data-name="Layer 2"><g id="tutorial"><g id="hand"><path class="cls-1" d="M338.4,206.84a23.56,23.56,0,0,1,1.13,4.93l.42-.42S358.5,270,356.3,301.76h0a2.53,2.53,0,0,1,0,.38l-.1,1.24-1.27,14.69-.35,4.12C350,364.35,317,404.41,268,421.24c-51.08,17.57-104.06,4.52-132.9-29-.49-.57-48.9-52.37-50.36-54.05L7.66,248.66A31.67,31.67,0,0,1,11,204a36.51,36.51,0,0,1,11.83-6.81c11.51-4,24.41-1.72,32.76,8L125,273l-.36-1L45.57,42a31.66,31.66,0,1,1,59.87-20.59l33.78,98.23A28.12,28.12,0,0,1,192,100.27a32.07,32.07,0,0,1,29-20.2c9.29-.24,17.58,2.1,23.81,8.87a87.53,87.53,0,0,1,8.39,16.6q1,2.59,2,5.5L263.61,138c.59,2.15-.37-.92.49,1.56l-.49-1.56c-6.61-24.4,3.83-27.44,15.22-31.35A23.71,23.71,0,0,1,309,121.31Z"/></g></g></g></svg>