<svg xmlns="http://www.w3.org/2000/svg" viewBox="0 0 519.52 702.38"><defs><style>.cls-1{fill:#5b3519;}.cls-2{fill:#664125;}.cls-3{fill:#433e32;}.cls-4{fill:#91562d;}.cls-5{fill:#6a9741;}.cls-6{fill:#5d843a;}.cls-7{fill:#4f6f32;}.cls-8{fill:#48642e;}.cls-9{fill:#74a746;}.cls-10{fill:#77aa47;}.cls-11{fill:#6e9c42;}.cls-12{fill:#4a672f;}.cls-13{fill:#4e6c31;}.cls-14{fill:#567936;}.cls-15{fill:#638c3d;}.cls-16{fill:#557735;}.cls-17{fill:#4f6e32;}.cls-18{fill:#5c8239;}.cls-19{fill:#587b37;}.cls-20{fill:#5b8038;}.cls-21{fill:#638d3d;}.cls-22{fill:#65903e;}.cls-23{fill:#68943f;}.cls-24{fill:#68933f;}.cls-25{fill:#72a245;}.cls-26{fill:#648e3d;}.cls-27{fill:#5a7e38;}.cls-28{fill:#67923f;}.cls-29{fill:#618a3c;}.cls-30{fill:#517133;}.cls-31{fill:#4a682f;}.cls-32{fill:#517233;}.cls-33{fill:#49662e;}.cls-34{fill:#658f3e;}.cls-35{fill:#60883b;}.cls-36{fill:#6d9b42;}.cls-37{fill:#537334;}.cls-38{fill:#4d6b31;}.cls-39{fill:#567835;}.cls-40{fill:#4c6930;}.cls-41{fill:#4e6d31;}.cls-42{fill:#66913e;}.cls-43{fill:#6a9640;}.cls-44{fill:#6c9941;}.cls-45{fill:#6b9841;}.cls-46{fill:#5f863a;}.cls-47{fill:#61893b;}.cls-48{fill:#5b8139;}.cls-49{fill:#587c37;}.cls-50{fill:#72a345;}.cls-51{fill:#6c9a42;}.cls-52{fill:#5e853a;}.cls-53{fill:#5d8339;}</style></defs><g id="stam"><polyline class="cls-1" points="182.04 670.68 154.02 658.6 157.14 655.91 191.16 658.64 182.04 670.68"/><polyline class="cls-2" points="204.11 328.39 141.49 320.49 108.38 246.64 159.78 301.01 201.06 306.64 204.11 328.39"/><polyline class="cls-3" points="236.11 258.03 261.57 242.81 264.63 250.42 233.91 279.49 236.11 258.03"/></g><g id="stam-2" data-name="stam"><polygon class="cls-2" points="237.16 166.64 193.16 287.64 222.16 395.64 172.16 515.64 191.16 658.64 166.16 691.64 176.16 698.64 201.66 679.64 223.78 681.96 237.16 698.64 254.66 702.38 272.29 695.75 258.5 679.91 243.69 647.23 242.16 533.36 265.65 428.68 306.5 424.6 371.36 382.21 392.8 342.89 387.69 332.68 366.25 367.92 325.91 389.36 290.5 409.11 261.57 407.75 233.48 283.66 245.23 169.28 237.16 166.64"/></g><g id="shading_stam" data-name="shading stam"><polygon class="cls-1" points="235.78 245.36 214.84 290.68 249.27 407.49 219.44 525.45 223.78 681.96 237.16 698.64 254.66 702.38 238.59 680.94 233.91 524.68 261.57 407.75 233.91 279.49 256.32 258.28 244.32 253.13 236.11 258.03 235.78 245.36"/><polygon class="cls-1" points="261.57 407.75 290.5 409.11 368.22 364.68 386.68 334.34 392.8 337.58 370.33 373.35 294.25 412.84 257.48 412.84 261.57 407.75"/><polygon class="cls-1" points="220.21 242.81 200.8 287.52 204.11 307.66 175.97 303.22 198 305.63 193.16 287.64 214.84 228.02 220.21 242.81"/><polygon class="cls-1" points="117.57 261.15 157.34 301.34 159.78 301.01 119.88 258.81 117.57 261.15"/><polygon class="cls-1" points="136.89 310.25 204.11 328.39 141.49 320.49 136.89 310.25"/></g><g id="highlight_stam" data-name="highlight stam"><path class="cls-4" d="M252.94,391l1,2.75,28.78,76.91s4.93,17.87,4.29,17.87-23.36,107.24-23.36,107.24l-7.91,138.38L219.34,778,215,775l28.77-37.51L227.94,600.38l23.11-51.06L277,487,254.4,408.89l-4.35-16.63" transform="translate(-48.84 -83.36)"/></g><g id="triangles_back" data-name="triangles back"><g id="left"><polygon class="cls-5" points="35.23 172.01 67.36 199.06 61.28 158.22 35.23 172.01"/><polygon class="cls-6" points="110.3 149.8 61.28 158.22 104.12 186.47 110.3 149.8"/><polygon class="cls-7" points="159.32 185.03 110.3 149.8 125.57 193.62 159.32 185.03"/><polygon class="cls-8" points="172.72 220.04 125.57 193.62 159.32 185.03 172.72 220.04"/><polygon class="cls-9" points="0 220.04 35.23 172.01 44.55 228.02 0 220.04"/><polygon class="cls-10" points="16.85 259.33 44.55 228.02 0 220.04 16.85 259.33"/><polygon class="cls-11" points="85.79 271.48 33.2 240.84 16.85 259.33 85.79 271.48"/><polygon class="cls-12" points="172.72 220.04 165.45 253.2 115.01 228.02 172.72 220.04"/><polygon class="cls-13" points="125.57 193.62 115.01 228.02 172.72 220.04 125.57 193.62"/><polygon class="cls-14" points="104.12 186.47 125.57 193.62 110.3 149.8 104.12 186.47"/><polygon class="cls-15" points="67.36 199.06 104.12 186.47 61.28 158.22 67.36 199.06"/><polygon class="cls-16" points="115.01 228.02 104.12 186.47 125.57 193.62 115.01 228.02"/><polygon class="cls-17" points="165.45 253.2 114.84 264.81 115.01 228.02 165.45 253.2"/><polygon class="cls-11" points="44.55 228.02 67.36 199.06 35.23 172.01 44.55 228.02"/><polygon class="cls-18" points="85.79 271.48 114.84 264.81 85.79 229.6 85.79 271.48"/><polygon class="cls-19" points="115.01 228.02 85.79 229.6 114.84 264.81 115.01 228.02"/><polygon class="cls-20" points="104.12 186.47 64.97 230.72 115.01 228.02 104.12 186.47"/><polygon class="cls-21" points="67.36 199.06 104.12 186.47 64.97 230.72 67.36 199.06"/><polygon class="cls-22" points="85.79 271.48 33.2 240.84 85.79 229.6 85.79 271.48"/><polygon class="cls-23" points="64.97 230.72 33.2 240.84 67.36 199.06 64.97 230.72"/><polygon class="cls-24" points="85.79 229.6 33.2 240.84 64.97 230.72 85.79 229.6"/></g><g id="mid"><polygon class="cls-25" points="172.72 189.19 225.57 166.64 221.91 208.6 172.72 189.19"/><polygon class="cls-10" points="172.72 217.53 221.91 208.6 172.72 189.19 172.72 217.53"/><polygon class="cls-9" points="197.99 229.02 221.91 208.6 172.72 217.53 197.99 229.02"/><polygon class="cls-11" points="220.97 251.23 252.63 226.47 197.99 229.02 220.97 251.23"/><polygon class="cls-26" points="285.86 269.51 273.57 230.72 220.97 251.23 285.86 269.51"/><polygon class="cls-27" points="326.94 269.51 281.1 254.5 285.86 269.51 326.94 269.51"/><polygon class="cls-28" points="251.74 180 257.48 208.6 225.57 166.64 251.74 180"/><polygon class="cls-29" points="293.74 201.45 257.48 208.6 251.74 180 293.74 201.45"/><polygon class="cls-30" points="365.74 196.85 324.38 226.47 293.74 201.45 365.74 196.85"/><polygon class="cls-31" points="389.48 230.55 324.38 226.47 365.74 196.85 389.48 230.55"/><polygon class="cls-32" points="326.94 269.51 356.93 250.83 298.41 260.17 326.94 269.51"/><polygon class="cls-33" points="389.48 230.55 356.93 250.83 324.38 226.47 389.48 230.55"/><polygon class="cls-32" points="298.41 260.17 324.38 226.47 356.93 250.83 298.41 260.17"/><polygon class="cls-18" points="273.57 230.72 298.41 260.17 281.1 254.5 273.57 230.72"/><polygon class="cls-19" points="324.38 226.47 273.57 230.72 298.41 260.17 324.38 226.47"/><polygon class="cls-20" points="293.74 201.45 273.57 230.72 324.38 226.47 293.74 201.45"/><polygon class="cls-34" points="252.63 226.47 273.57 230.72 220.97 251.23 252.63 226.47"/><polygon class="cls-35" points="257.48 208.6 273.57 230.72 293.74 201.45 257.48 208.6"/><polygon class="cls-21" points="252.63 226.47 257.48 208.6 273.57 230.72 252.63 226.47"/><polygon class="cls-36" points="221.91 208.6 252.63 226.47 197.99 229.02 221.91 208.6"/><polygon class="cls-24" points="257.48 208.6 221.91 208.6 252.63 226.47 257.48 208.6"/><polygon class="cls-5" points="225.57 166.64 221.91 208.6 257.48 208.6 225.57 166.64"/></g></g><g id="triangles_front" data-name="triangles front"><g id="triangles_big_part" data-name="triangles big part"><polygon class="cls-15" points="171.19 13.02 229.4 0 249.27 64.34 171.19 13.02"/><polygon class="cls-6" points="249.27 64.34 318.25 0 229.4 0 249.27 64.34"/><polygon class="cls-19" points="371.87 30.64 266.16 48.58 318.25 0 371.87 30.64"/><polygon class="cls-37" points="266.16 48.58 371.87 30.64 420.12 46.72 266.16 48.58"/><polygon class="cls-7" points="420.12 46.72 429.31 68.17 338.16 113.11 420.12 46.72"/><polygon class="cls-38" points="467.61 101.87 429.31 68.17 411.19 132 467.61 101.87"/><polygon class="cls-39" points="338.16 113.11 266.16 48.58 420.12 46.72 338.16 113.11"/><polygon class="cls-30" points="429.31 68.17 411.19 132 338.16 113.11 429.31 68.17"/><polygon class="cls-31" points="411.19 132 467.61 101.87 462.25 166.64 411.19 132"/><polygon class="cls-40" points="449.99 189.19 411.19 132 462.25 166.64 449.99 189.19"/><polygon class="cls-41" points="358.59 210.64 411.19 132 449.99 189.19 358.59 210.64"/><polygon class="cls-37" points="338.16 113.11 411.19 132 358.59 210.64 338.16 113.11"/><polygon class="cls-18" points="249.27 64.34 338.16 113.11 266.16 48.58 249.27 64.34"/><polygon class="cls-42" points="171.19 13.02 142.08 38.3 249.27 64.34 171.19 13.02"/><polygon class="cls-43" points="88.46 64.34 220.21 101.87 142.08 38.3 88.46 64.34"/><polygon class="cls-44" points="64.72 120.25 220.21 101.87 88.46 64.34 64.72 120.25"/><polygon class="cls-11" points="88.46 163.15 167.95 108.05 64.72 120.25 88.46 163.15"/><polygon class="cls-45" points="142.08 172.34 180.38 162.38 88.46 163.15 142.08 172.34"/><polygon class="cls-45" points="167.95 108.05 180.38 162.38 88.46 163.15 167.95 108.05"/><polygon class="cls-34" points="220.21 101.87 249.27 64.34 142.08 38.3 220.21 101.87"/><polygon class="cls-46" points="249.27 64.34 220.21 101.87 338.16 113.11 249.27 64.34"/><polygon class="cls-47" points="180.38 162.38 338.16 113.11 167.95 108.05 180.38 162.38"/><polygon class="cls-29" points="220.21 101.87 338.16 113.11 167.95 108.05 220.21 101.87"/><polygon class="cls-46" points="180.38 162.38 254.66 188.43 338.16 113.11 180.38 162.38"/><polygon class="cls-48" points="296.04 210.64 297.49 149.8 254.66 188.43 296.04 210.64"/><polygon class="cls-49" points="338.16 113.11 321.14 210.64 297.49 149.8 338.16 113.11"/><polygon class="cls-39" points="358.59 210.64 338.16 113.11 321.14 210.64 358.59 210.64"/><polygon class="cls-27" points="296.04 210.64 321.14 210.64 297.49 149.8 296.04 210.64"/></g><g id="triangles_small" data-name="triangles small"><polygon class="cls-42" points="339.52 226.53 404.29 255.57 412.29 213.51 339.52 226.53"/><polygon class="cls-50" points="321.14 285.51 404.29 255.57 339.52 226.53 321.14 285.51"/><polygon class="cls-51" points="349.48 326.87 427.01 307.66 321.14 285.51 349.48 326.87"/><polygon class="cls-28" points="388.44 340.45 427.01 307.66 349.48 326.87 388.44 340.45"/><polygon class="cls-52" points="452.89 373.59 427.01 307.66 388.44 340.45 452.89 373.59"/><polygon class="cls-13" points="505.74 359.04 480.63 301.34 452.89 373.59 505.74 359.04"/><polygon class="cls-8" points="519.52 323.04 480.63 301.34 505.74 359.04 519.52 323.04"/><polygon class="cls-33" points="504.97 264.01 480.63 301.34 519.52 323.04 504.97 264.01"/><polygon class="cls-7" points="480.46 232.65 439.4 271.4 504.97 264.01 480.46 232.65"/><polygon class="cls-49" points="412.29 213.51 480.46 232.65 439.4 271.4 412.29 213.51"/><polygon class="cls-46" points="404.29 255.57 439.4 271.4 412.29 213.51 404.29 255.57"/><polygon class="cls-43" points="427.01 307.66 404.29 255.57 321.14 285.51 427.01 307.66"/><polygon class="cls-39" points="480.63 301.34 427.01 307.66 452.89 373.59 480.63 301.34"/><polygon class="cls-7" points="439.4 271.4 480.63 301.34 504.97 264.01 439.4 271.4"/><polygon class="cls-53" points="427.01 307.66 439.4 271.4 404.29 255.57 427.01 307.66"/><polygon class="cls-19" points="480.63 301.34 439.4 271.4 427.01 307.66 480.63 301.34"/></g></g></svg>