<svg id="colon" xmlns="http://www.w3.org/2000/svg" viewBox="0 0 88.51 409.54"><defs><style>.cls-1{fill:#231f20;}</style></defs><path class="cls-1" d="M544.26,341.94l-5,5s3.33,5,0,8.34-1.67,6.69,0,10c-1.67,1.68-6.69,8.36-8.35,10,0,3.33-18.38,10-18.38,13.35v1.67c-3.33,0-10,1.67-13.35,1.67a12.78,12.78,0,0,1-8.36-3.34c-5,0-5-5-8.35-5-5,0-5,0-10-5l-3.34-3.33c-1.66-1.68-5-5-5-8.36,0-5-3.34-10-3.34-10-5-3.34-5-8.35-5-11.7,3.34-5,3.34-8.34,3.34-8.34s-1.66-5,1.67-8.35,3.34-6.68,1.67-11.7c1.67-1.67,5-5,6.68-6.67,3.34-8.35,18.38-10,18.38-15,3.33-1.67,10-1.67,13.35-1.67s5,0,8.36,3.34c5,0,5,3.35,8.35,3.35,5,0,5,0,10,5l3.34,3.35c1.66,1.67,3.34,6.67,5,10a78.84,78.84,0,0,1,3.34,8.34c5,3.35,5,8.35,5,13.37Z" transform="translate(-455.74 -293.5)"/><path class="cls-1" d="M544.26,652.94l-5,5s3.33,5,0,8.34-1.67,6.69,0,10c-1.67,1.68-6.69,8.36-8.35,10,0,3.33-18.38,10-18.38,13.35v1.67c-3.33,0-10,1.67-13.35,1.67a12.78,12.78,0,0,1-8.36-3.34c-5,0-5-5-8.35-5-5,0-5,0-10-5l-3.34-3.33c-1.66-1.68-5-5-5-8.36,0-5-3.34-10-3.34-10-5-3.34-5-8.35-5-11.7,3.34-5,3.34-8.34,3.34-8.34s-1.66-5,1.67-8.35,3.34-6.68,1.67-11.7c1.67-1.67,5-5,6.68-6.67,3.34-8.35,18.38-10,18.38-15,3.33-1.67,10-1.67,13.35-1.67s5,0,8.36,3.34c5,0,5,3.35,8.35,3.35,5,0,5,0,10,5l3.34,3.35c1.66,1.67,3.34,6.67,5,10a78.84,78.84,0,0,1,3.34,8.34c5,3.35,5,8.35,5,13.37Z" transform="translate(-455.74 -293.5)"/></svg>