<svg id="colon" xmlns="http://www.w3.org/2000/svg" viewBox="0 0 242.51 682.39"><defs><style>.cls-1{fill:#231f20;}</style></defs><path class="cls-1" d="M616.13,299.17l-13.44,13.44s8.95,13.46,0,22.41-4.49,18,0,26.9c-4.49,4.49-18,22.45-22.41,26.94,0,8.94-49.35,26.9-49.35,35.85v4.49c-8.95,0-26.9,4.49-35.85,4.49s-18-4.49-22.44-9c-13.44,0-13.44-13.44-22.42-13.44-13.44,0-13.44,0-26.9-13.47l-9-8.94c-4.46-4.49-13.44-13.47-13.44-22.45,0-13.44-9-26.9-9-26.9-13.44-8.95-13.44-22.42-13.44-31.39,8.95-13.44,8.95-22.42,8.95-22.42s-4.46-13.44,4.49-22.41,9-17.93,4.48-31.39c4.49-4.49,13.47-13.44,17.93-17.93,9-22.42,49.35-26.9,49.35-40.37,8.95-4.49,26.9-4.49,35.85-4.49s13.47,0,22.44,9c13.44,0,13.44,9,22.42,9,13.44,0,13.44,0,26.9,13.43l9,9c4.46,4.49,9,17.93,13.44,26.9s9,22.42,9,22.42c13.44,9,13.44,22.41,13.44,35.88Z" transform="translate(-378.49 -169.11)"/><path class="cls-1" d="M621,717l-13.44,13.44s9,13.47,0,22.42-4.49,17.95,0,26.9c-4.49,4.49-17.95,22.44-22.41,26.93,0,9-49.35,26.9-49.35,35.85V847c-8.95,0-26.9,4.49-35.85,4.49s-18-4.49-22.44-9c-13.44,0-13.44-13.44-22.42-13.44-13.44,0-13.44,0-26.9-13.46l-9-9c-4.46-4.49-13.44-13.47-13.44-22.44,0-13.44-9-26.91-9-26.91-13.44-9-13.44-22.41-13.44-31.39,8.95-13.44,8.95-22.41,8.95-22.41s-4.46-13.44,4.49-22.42,9-17.92,4.48-31.39c4.49-4.49,13.47-13.44,17.93-17.93,9-22.41,49.35-26.9,49.35-40.37,8.95-4.48,26.9-4.48,35.85-4.48s13.46,0,22.44,9c13.44,0,13.44,9,22.42,9,13.43,0,13.43,0,26.9,13.44l9,9c4.46,4.48,9,17.92,13.43,26.9s9,22.41,9,22.41C621,685.59,621,699,621,712.49Z" transform="translate(-378.49 -169.11)"/></svg>