<svg id="colon" xmlns="http://www.w3.org/2000/svg" viewBox="0 0 89.26 99.37"><defs><style>.cls-1{fill:#231f20;}</style></defs><path class="cls-1" d="M544,652.93,539,658s3.36,5.06,0,8.42-1.68,6.74,0,10.1c-1.68,1.69-6.74,8.43-8.42,10.12,0,3.36-18.53,10.1-18.53,13.47v1.68c-3.36,0-10.1,1.69-13.47,1.69a12.92,12.92,0,0,1-8.43-3.37c-5,0-5-5.05-8.41-5.05-5.05,0-5.05,0-10.11-5.06l-3.37-3.36c-1.68-1.69-5-5.06-5-8.43,0-5.05-3.37-10.1-3.37-10.1-5.05-3.37-5.05-8.42-5.05-11.8,3.36-5,3.36-8.41,3.36-8.41s-1.67-5,1.69-8.42,3.37-6.74,1.69-11.79l6.73-6.74c3.37-8.42,18.53-10.1,18.53-15.16,3.36-1.68,10.11-1.68,13.47-1.68s5.06,0,8.43,3.37c5.05,0,5.05,3.37,8.42,3.37,5,0,5,0,10.1,5l3.37,3.37c1.68,1.68,3.37,6.73,5.05,10.1a78.27,78.27,0,0,1,3.37,8.42c5,3.37,5,8.42,5,13.48Z" transform="translate(-454.74 -604.09)"/></svg>